<svg fill="none" height="73" viewBox="0 0 65 73" width="65" xmlns="http://www.w3.org/2000/svg" xmlns:xlink="http://www.w3.org/1999/xlink"><filter id="a" color-interpolation-filters="sRGB" filterUnits="userSpaceOnUse" height="82" width="82" x="0" y="-9"><feFlood flood-opacity="0" result="BackgroundImageFix"/><feColorMatrix in="SourceAlpha" result="hardAlpha" type="matrix" values="0 0 0 0 0 0 0 0 0 0 0 0 0 0 0 0 0 0 127 0"/><feOffset dy="8"/><feGaussianBlur stdDeviation="12.5"/><feColorMatrix type="matrix" values="0 0 0 0 0.12549 0 0 0 0 0.12549 0 0 0 0 0.12549 0 0 0 0.15 0"/><feBlend in2="BackgroundImageFix" mode="normal" result="effect1_dropShadow_0_1311"/><feBlend in="SourceGraphic" in2="effect1_dropShadow_0_1311" mode="normal" result="shape"/></filter><clipPath id="b"><path d="m25 8h32v32h-32z"/></clipPath><g clip-path="url(#b)" filter="url(#a)"><rect fill="#fff" height="32" rx="16" width="32" x="25" y="8"/><path d="m31 14h20v20h-20z" fill="#fff" opacity=".01"/><path clip-rule="evenodd" d="m40.3331 18.1798c1.0472-1.3953 3.0272-1.6777 4.4232-.6307 1.3955 1.0474 1.6769 3.0285.6299 4.4235l-1.0217 1.3611c-.0163.0323-.0357.0636-.0581.0935-.0225.0299-.0471.0573-.0735.082l-1.1241 1.4976c-1.2281 1.6361-2.6348 3.5101-3.3494 4.4617-.8591 1.1452-2.0907 1.5103-3.0411 1.6022-.4785.0462-.9041.0258-1.2099-.0058-.1537-.016-.279-.0349-.3681-.0503-.0446-.0077-.0802-.0146-.1059-.0197l-.031-.0065-.0098-.0022-.0033-.0008-.0013-.0003c-.0003 0-.0011-.0002.139-.6093l-.5426.3101-.001-.0016-.0017-.0031-.0049-.0088-.0152-.0278c-.0125-.0232-.0293-.0552-.0496-.0957-.0404-.0806-.0945-.195-.1537-.3372-.1177-.2833-.2586-.6843-.3493-1.156-.1807-.9388-.172-2.2224.6964-3.38zm-5.7477 12.5061c.0866.1513.2327.26.4025.299l.1401-.6091c-.5424.3106-.5425.3104-.5426.3101zm9.0888-8.5147.7122-.9489c.633-.8433.4626-2.0407-.3803-2.6733-.8439-.6329-2.0405-.4619-2.6733.3811l-.7123.949zm-3.8041-1.2924 3.0537 2.2921-.8148 1.0855c-1.228 1.636-2.6348 3.5102-3.3493 4.4619-.5692.7587-1.4034 1.0349-2.1617 1.1082-.3758.0364-.7153.0204-.961-.0051-.0315-.0032-.0614-.0066-.0895-.01-.0109-.025-.0223-.0516-.034-.0798-.094-.2259-.2052-.5439-.2761-.912-.1425-.7407-.1119-1.6196.4688-2.3937zm1.6174 9.3777c0-.3452.2798-.625.625-.625h5.3141c.3452 0 .625.2798.625.625s-.2798.625-.625.625h-5.3141c-.3452 0-.625-.2798-.625-.625z" fill="#181818" fill-rule="evenodd"/></g></svg>