<svg width="20" height="20" viewBox="0 0 20 20" fill="none" xmlns="http://www.w3.org/2000/svg">
<rect opacity="0.01" width="20" height="20" transform="matrix(-1 0 0 1 20 0)" fill="white"/>
<path fill-rule="evenodd" clip-rule="evenodd" d="M11.6667 4.16667C11.6667 3.24619 10.9206 2.5 10.0001 2.5C9.07961 2.5 8.33341 3.24619 8.33341 4.16667C8.33341 5.08714 9.07961 5.83333 10.0001 5.83333C10.9206 5.83333 11.6667 5.08714 11.6667 4.16667ZM10.0001 14.1667C10.9206 14.1667 11.6667 14.9129 11.6667 15.8333C11.6667 16.7538 10.9206 17.5 10.0001 17.5C9.07961 17.5 8.33341 16.7538 8.33341 15.8333C8.33341 14.9129 9.07961 14.1667 10.0001 14.1667ZM10.0001 8.33333C10.9206 8.33333 11.6667 9.07953 11.6667 10C11.6667 10.9205 10.9206 11.6667 10.0001 11.6667C9.07961 11.6667 8.33341 10.9205 8.33341 10C8.33341 9.07953 9.07961 8.33333 10.0001 8.33333Z" fill="#181818"/>
</svg>
