<svg width="40" height="40" viewBox="0 0 40 40" fill="none" xmlns="http://www.w3.org/2000/svg">
<rect opacity="0.01" width="40" height="40" fill="white"/>
<rect opacity="0.01" x="8" y="8" width="24" height="24" fill="white"/>
<path fill-rule="evenodd" clip-rule="evenodd" d="M19.8373 9.65002C17.0007 9.65002 14.7007 11.9497 14.7 14.786L14.7 14.7873H15.45L14.7 14.7848L14.7 14.786C14.6911 17.6141 16.9754 19.914 19.8038 19.9236H19.8064H19.8373C22.6742 19.9236 24.9737 17.6242 24.9737 14.7873C24.9737 11.9506 22.6744 9.65002 19.8373 9.65002ZM16.2 14.7873C16.2 12.7788 17.8287 11.15 19.8373 11.15C21.8456 11.15 23.4736 12.7786 23.4736 14.7873C23.4736 16.7958 21.8449 18.4237 19.8364 18.4237H19.8076C17.8079 18.4162 16.1932 16.7898 16.2 14.7898V14.7873ZM13.75 26.7867C13.75 25.9894 14.3053 25.0845 15.4419 24.3385C16.5584 23.6057 18.1245 23.1119 19.8446 23.1119C21.5556 23.1119 23.1226 23.6011 24.2421 24.3298C25.3822 25.0719 25.9391 25.9717 25.9391 26.7661C25.9391 27.1512 25.8152 27.4377 25.5916 27.6789C25.3521 27.9373 24.9676 28.1737 24.411 28.3685C23.2884 28.7614 21.6826 28.9119 19.8446 28.9119C18.0152 28.9119 16.4085 28.7667 15.2825 28.3781C14.724 28.1854 14.3382 27.9508 14.0979 27.694C13.874 27.4549 13.75 27.1706 13.75 26.7867ZM19.8446 21.6119C17.8528 21.6119 15.9966 22.1801 14.6188 23.0845C13.261 23.9757 12.25 25.2832 12.25 26.7867C12.25 27.5531 12.5201 28.2034 13.0027 28.7191C13.4689 29.2171 14.102 29.5575 14.7932 29.7961C16.1665 30.2699 17.9821 30.4119 19.8446 30.4119C21.7184 30.4119 23.5348 30.2644 24.9065 29.7843C25.597 29.5427 26.2278 29.1989 26.6916 28.6987C27.1714 28.1813 27.4391 27.5309 27.4391 26.7661C27.4391 25.2597 26.4196 23.9574 25.0604 23.0726C23.6806 22.1745 21.8253 21.6119 19.8446 21.6119Z" fill="#A9A9A9"/>
</svg>
