<svg width="18" height="22" viewBox="0 0 18 22" fill="none" xmlns="http://www.w3.org/2000/svg">
<g clip-path="url(#clip0_8168_26)">
<path d="M8.97024 1.5C2.58324 1.5 1.50424 2.432 1.50424 9.929C1.50424 18.322 1.34724 20.5 2.94324 20.5C4.53824 20.5 7.14324 16.816 8.97024 16.816C10.7972 16.816 13.4022 20.5 14.9972 20.5C16.5932 20.5 16.4362 18.322 16.4362 9.929C16.4362 2.432 15.3572 1.5 8.97024 1.5Z" fill="#F9D8D8"/>
<path fill-rule="evenodd" clip-rule="evenodd" d="M8.97013 0.75C7.36876 0.75 6.03812 0.807084 4.95868 1.02799C3.86567 1.25168 2.96486 1.65608 2.28808 2.39749C1.61928 3.13015 1.24716 4.10742 1.03387 5.31915C0.820963 6.52872 0.754126 8.04736 0.754126 9.929C0.754126 10.6551 0.752894 11.3368 0.751739 11.9764L0.751738 11.9766C0.746272 15.0013 0.742513 17.0807 0.87889 18.4369C0.960258 19.2461 1.10057 19.9329 1.40909 20.4262C1.57501 20.6915 1.79536 20.9113 2.08148 21.0577C2.36248 21.2015 2.65915 21.25 2.94313 21.25C3.59191 21.25 4.22099 20.8931 4.72878 20.5403C5.22399 20.1962 5.74525 19.7508 6.23827 19.3295L6.23975 19.3282L6.35655 19.2284C6.90146 18.7633 7.41326 18.3339 7.89356 18.0186C8.39176 17.6915 8.74197 17.566 8.97013 17.566C9.19829 17.566 9.5485 17.6915 10.0467 18.0186C10.527 18.3339 11.0388 18.7633 11.5838 19.2284L11.7005 19.3282L11.7026 19.33C12.1955 19.7512 12.7165 20.1964 13.2115 20.5403C13.7193 20.8931 14.3484 21.25 14.9972 21.25C15.2811 21.25 15.5778 21.2015 15.8588 21.0577C16.1449 20.9113 16.3653 20.6915 16.5312 20.4262C16.8397 19.9329 16.98 19.2461 17.0614 18.4369C17.1977 17.0816 17.194 15.0039 17.1886 11.9823L17.1886 11.9766C17.1874 11.337 17.1862 10.6552 17.1862 9.929C17.1862 8.04736 17.1193 6.52872 16.9064 5.31915C16.6931 4.10742 16.321 3.13015 15.6522 2.39749C14.9754 1.65608 14.0746 1.25168 12.9816 1.02799C11.9022 0.807084 10.5715 0.75 8.97013 0.75ZM2.25413 9.929C2.25413 8.06214 2.32217 6.65291 2.51117 5.57919C2.69978 4.50764 2.9966 3.84622 3.39593 3.40876C3.78728 2.98004 4.35378 2.68288 5.25943 2.49754C6.17864 2.30942 7.378 2.25 8.97013 2.25C10.5623 2.25 11.7617 2.30942 12.6809 2.49754C13.5865 2.68288 14.153 2.98004 14.5444 3.40876C14.9437 3.84622 15.2405 4.50764 15.4291 5.57919C15.6181 6.65291 15.6862 8.06214 15.6862 9.929C15.6862 10.6729 15.6873 11.3657 15.6884 12.0109C15.6936 15.0367 15.6969 17.014 15.5689 18.2868C15.4901 19.0713 15.3704 19.4535 15.2594 19.6309C15.2156 19.7009 15.1864 19.7168 15.1756 19.7223C15.1597 19.7305 15.1122 19.75 14.9972 19.75C14.8484 19.75 14.5538 19.6464 14.0674 19.3085C13.6365 19.009 13.1703 18.6109 12.6585 18.1737L12.6578 18.1731L12.5576 18.0876C12.0235 17.6317 11.4418 17.1401 10.87 16.7647C10.316 16.401 9.65547 16.066 8.97013 16.066C8.28479 16.066 7.62425 16.401 7.07033 16.7647C6.4985 17.1401 5.9168 17.6317 5.38271 18.0876L5.28247 18.1732L5.28038 18.175C4.76914 18.6116 4.30342 19.0093 3.87286 19.3085C3.38652 19.6464 3.09186 19.75 2.94313 19.75C2.82811 19.75 2.78057 19.7305 2.76467 19.7223C2.75389 19.7168 2.72466 19.7009 2.68085 19.6309C2.56994 19.4535 2.45025 19.0713 2.37137 18.2868C2.24337 17.0141 2.24673 15.0369 2.25186 12.0115L2.25186 12.011C2.25296 11.3658 2.25413 10.6729 2.25413 9.929ZM5.54236 7.4677C5.12814 7.4677 4.79236 7.80348 4.79236 8.2177C4.79236 8.63191 5.12814 8.9677 5.54236 8.9677H12.3974C12.8116 8.9677 13.1474 8.63191 13.1474 8.2177C13.1474 7.80348 12.8116 7.4677 12.3974 7.4677H5.54236Z" fill="#E23E3E"/>
</g>
<defs>
<clipPath id="clip0_8168_26">
<rect width="16.4408" height="20.5" fill="white" transform="translate(0.749756 0.75)"/>
</clipPath>
</defs>
</svg>
