<svg width="24" height="24" viewBox="0 0 24 24" fill="none" xmlns="http://www.w3.org/2000/svg">
<path d="M16.3611 10.7328C17.3008 9.87398 17.8561 8.73365 17.967 7.43486C18.2247 4.41668 16.8892 2.24011 16.8321 2.14887C16.774 2.05585 16.6761 2 16.5713 2H7.42871C7.32388 2 7.22591 2.05585 7.16779 2.14887C7.11077 2.24001 5.77522 4.41658 6.03299 7.43486C6.14386 8.73365 6.69914 9.87398 7.63884 10.7328C8.45458 11.4783 9.52085 11.9832 10.7327 12.2009V18.7583C9.63051 18.8157 8.62887 18.9467 7.88705 19.1322C6.87585 19.385 6.40488 19.7157 6.40488 20.1726C6.40488 20.6745 6.97938 21.0288 8.21288 21.2876C9.2251 21.4999 10.5637 21.6176 11.986 21.6199V21.62C11.9907 21.62 12.0139 21.6199 12.0139 21.6199C13.4362 21.6176 14.7748 21.4999 15.7871 21.2876C17.0206 21.0288 17.595 20.6745 17.595 20.1726C17.595 19.7157 17.1241 19.3849 16.1129 19.1322C15.3712 18.9468 14.3696 18.8158 13.2674 18.7584V12.2009C14.4793 11.983 15.5453 11.4782 16.3611 10.7328ZM15.7862 19.7383C16.5846 19.9174 16.856 20.0968 16.9409 20.1734C16.8242 20.2784 16.4282 20.4913 15.4637 20.673C14.5132 20.8521 13.2839 20.9511 12.0001 20.9527C10.7163 20.9513 9.48714 20.852 8.53648 20.673C7.57199 20.4913 7.17596 20.2785 7.05933 20.1734C7.14411 20.0968 7.41562 19.9172 8.21381 19.7383C8.88961 19.5867 9.77453 19.4776 10.7329 19.4263V19.8889C10.7329 20.0732 10.8732 20.2226 11.0463 20.2226C11.2194 20.2226 11.3597 20.0732 11.3597 19.8889L11.3604 11.9088C11.3604 11.7245 11.2201 11.5752 11.047 11.5752C11.0426 11.5752 11.0382 11.5757 11.0338 11.5759C11.0335 11.5758 11.0332 11.5757 11.0328 11.5757C9.06576 11.2809 6.88337 10.0225 6.65726 7.37446C6.4566 5.0251 7.32638 3.18817 7.60579 2.66724H16.3942C16.6736 3.18817 17.5434 5.0252 17.3428 7.37436C17.1166 10.0224 14.9343 11.2807 12.9672 11.5756C12.9669 11.5756 12.9665 11.5757 12.9662 11.5758C12.9618 11.5756 12.9574 11.5751 12.9529 11.5751C12.7799 11.5751 12.6395 11.7244 12.6395 11.9087L12.6406 19.9334C12.6406 20.1177 12.7809 20.267 12.954 20.267C13.127 20.267 13.2674 20.1177 13.2674 19.9334V19.4263C14.2258 19.4777 15.1105 19.5867 15.7862 19.7383Z" fill="#A9A9A9" stroke="#A9A9A9" stroke-width="0.581851"/>
<path d="M16.0087 9.17802C16.6119 8.19535 16.6189 7.21575 16.6189 7.17453C16.6189 6.99146 16.4816 6.8329 16.3097 6.83122H15.6176C15.444 6.82816 15.3026 6.97663 15.3006 7.16099C15.2987 7.34524 15.4372 7.49628 15.6103 7.49846L15.9623 7.50479C15.8395 8.33186 15.2107 10.411 11.9999 10.4849C8.78911 10.411 8.16039 8.33186 8.03744 7.50479L14.0093 7.49846C14.0104 7.49846 14.0113 7.49846 14.0124 7.49846C14.1841 7.49846 14.3241 7.35117 14.3257 7.1681C14.3274 6.98385 14.1884 6.833 14.0154 6.83122L7.69128 6.84091C7.5194 6.84259 7.38086 6.99146 7.38086 7.17453C7.38086 7.21575 7.38782 8.19525 7.99111 9.17802C8.52958 10.0552 10.1752 11.1076 11.986 11.1076C13.7968 11.1076 15.4702 10.0552 16.0087 9.17802Z" fill="#A9A9A9" stroke="#A9A9A9" stroke-width="0.581851"/>
</svg>
